HIERARCHY
ROOT Hips
{
	OFFSET 0.000000 0.000000 0.000000
	CHANNELS 6 Xposition Yposition Zposition Zrotation Yrotation Xrotation 
	JOINT LHipJoint
	{
		OFFSET 0.000000 0.000000 0.000000
		CHANNELS 3 Zrotation Yrotation Xrotation
		JOINT LeftUpLeg
		{
			OFFSET 1.363060 -1.794630 0.839290
			CHANNELS 3 Zrotation Yrotation Xrotation
			JOINT LeftLeg
			{
				OFFSET 2.448110 -6.726130 0.000000
				CHANNELS 3 Zrotation Yrotation Xrotation
				JOINT LeftFoot
				{
					OFFSET 2.562200 -7.039590 0.000000
					CHANNELS 3 Zrotation Yrotation Xrotation
					JOINT LeftToeBase
					{
						OFFSET 0.157640 -0.433110 2.322550
						CHANNELS 3 Zrotation Yrotation Xrotation
						End Site
						{
							OFFSET 0.000000 0.000000 0.000000
						}
					}
				}
			}
		}
	}
	JOINT RHipJoint
	{
		OFFSET 0.000000 0.000000 0.000000
		CHANNELS 3 Zrotation Yrotation Xrotation
		JOINT RightUpLeg
		{
			OFFSET -1.305520 -1.794630 0.839290
			CHANNELS 3 Zrotation Yrotation Xrotation
			JOINT RightLeg
			{
				OFFSET -2.542530 -6.985550 0.000000
				CHANNELS 3 Zrotation Yrotation Xrotation
				JOINT RightFoot
				{
					OFFSET -2.568260 -7.056230 0.000000
					CHANNELS 3 Zrotation Yrotation Xrotation
					JOINT RightToeBase
					{
						OFFSET -0.164730 -0.452590 2.363150
						CHANNELS 3 Zrotation Yrotation Xrotation
						End Site
						{
							OFFSET 0.000000 0.000000 0.000000
						}
					}
				}
			}
		}
	}
	JOINT LowerBack
	{
		OFFSET 0.000000 0.000000 0.000000
		CHANNELS 3 Zrotation Yrotation Xrotation
		JOINT Spine
		{
			OFFSET 0.028270 2.035590 -0.193380
			CHANNELS 3 Zrotation Yrotation Xrotation
			JOINT Spine1
			{
				OFFSET 0.056720 2.048850 -0.042750
				CHANNELS 3 Zrotation Yrotation Xrotation
				JOINT Neck
				{
					OFFSET 0.000000 0.000000 0.000000
					CHANNELS 3 Zrotation Yrotation Xrotation
					JOINT Neck1
					{
						OFFSET -0.054170 1.746240 0.172020
						CHANNELS 3 Zrotation Yrotation Xrotation
						JOINT Head
						{
							OFFSET 0.104070 1.761360 -0.123970
							CHANNELS 3 Zrotation Yrotation Xrotation
							End Site
							{
								OFFSET 0.000000 0.000000 0.000000
							}
						}
					}
				}
				JOINT LeftShoulder
				{
					OFFSET 0.000000 0.000000 0.000000
					CHANNELS 3 Zrotation Yrotation Xrotation
					JOINT LeftArm
					{
						OFFSET 3.362410 1.200890 -0.311210
						CHANNELS 3 Zrotation Yrotation Xrotation
						JOINT LeftForeArm
						{
							OFFSET 4.983000 -0.000000 -0.000000
							CHANNELS 3 Zrotation Yrotation Xrotation
							JOINT LeftHand
							{
								OFFSET 3.483560 -0.000000 -0.000000
								CHANNELS 3 Zrotation Yrotation Xrotation
								JOINT LeftFingerBase
								{
									OFFSET 0.000000 0.000000 0.000000
									CHANNELS 3 Zrotation Yrotation Xrotation
									JOINT LeftHandIndex1
									{
										OFFSET 0.715260 -0.000000 -0.000000
										CHANNELS 3 Zrotation Yrotation Xrotation
										End Site
										{
											OFFSET 0.000000 0.000000 0.000000
										}
									}
								}
								JOINT LThumb
								{
									OFFSET 0.000000 0.000000 0.000000
									CHANNELS 3 Zrotation Yrotation Xrotation
									End Site
									{
										OFFSET 0.000000 0.000000 0.000000
									}
								}
							}
						}
					}
				}
				JOINT RightShoulder
				{
					OFFSET 0.000000 0.000000 0.000000
					CHANNELS 3 Zrotation Yrotation Xrotation
					JOINT RightArm
					{
						OFFSET -3.136600 1.374050 -0.404650
						CHANNELS 3 Zrotation Yrotation Xrotation
						JOINT RightForeArm
						{
							OFFSET -5.241900 -0.000000 -0.000000
							CHANNELS 3 Zrotation Yrotation Xrotation
							JOINT RightHand
							{
								OFFSET -3.444170 -0.000000 -0.000000
								CHANNELS 3 Zrotation Yrotation Xrotation
								JOINT RightFingerBase
								{
									OFFSET 0.000000 0.000000 0.000000
									CHANNELS 3 Zrotation Yrotation Xrotation
									JOINT RightHandIndex1
									{
										OFFSET -0.622530 -0.000000 -0.000000
										CHANNELS 3 Zrotation Yrotation Xrotation
										End Site
										{
											OFFSET 0.000000 0.000000 0.000000
										}
									}
								}
								JOINT RThumb
								{
									OFFSET 0.000000 0.000000 0.000000
									CHANNELS 3 Zrotation Yrotation Xrotation
									End Site
									{
										OFFSET 0.000000 0.000000 0.000000
									}
								}
							}
						}
					}
				}
			}
		}
	}
}
MOTION
Frames: 5
Frame Time: 0.008333
10.397198 18.020339 20.865593 171.507238 7.631740 -144.518563 9.746678 1.612770 -2.387488 0.696920 -17.472617 -26.238574 -1.073448 9.774881 22.781216 -0.683897 32.805783 -10.642947 1.436400 7.577600 21.438200 -13.215478 -2.240978 -2.164142 0.414861 10.500980 -75.281784 -11.109967 -25.029345 68.393150 -2.895113 2.143105 -32.443591 -1.572300 7.911700 -22.446200 0.209813 -2.707830 6.203902 1.047642 -2.787373 -2.485180 -1.575054 -1.515300 7.638749 -8.149240 -4.912909 -2.574109 7.675768 -7.842549 16.402071 0.299000 -3.117000 3.272200 19.067110 -2.468104 0.582361 -90.957800 -15.198005 34.921863 39.090355 -43.040769 -20.302800 -1.715304 -0.321818 -11.226771 25.070303 -14.162683 -6.969700 -7.125000 0.000000 0.000000 -0.430300 14.373800 0.310000 -12.258314 1.932656 0.133662 63.124620 16.131495 23.064720 -27.555763 38.668127 -12.621626 0.485454 3.567989 -11.808328 -14.009524 -41.264993 10.783600 7.125000 0.000000 0.000000 37.883100 -72.398000 -25.666700 
10.479804 18.106566 20.844639 171.494590 7.641307 -144.429970 9.820882 1.603276 -2.490524 -0.203397 -16.215457 -27.736391 -0.700186 10.827203 25.522617 -0.668973 33.025590 -10.554445 1.393100 7.467300 21.107300 -13.199221 -2.211396 -2.149338 0.814913 10.762835 -74.762830 -10.776922 -24.898846 67.495527 -2.873109 2.263645 -32.353060 -1.456500 7.628000 -21.589800 0.390963 -2.294066 6.286147 0.832419 -2.203779 -2.418791 -2.313226 -1.190111 7.844569 -6.704701 -5.504454 -3.681786 7.358703 -8.440760 16.859818 -0.179000 -3.335400 3.651600 19.095313 -2.332749 0.596387 -90.275793 -15.717978 36.238992 38.837852 -42.877555 -20.088215 -1.768097 -0.339197 -11.311491 25.904403 -14.050907 -7.173900 -7.125000 0.000000 0.000000 0.184600 14.395900 -0.132900 -12.267262 1.993170 0.048188 64.139638 15.720388 22.047540 -27.319795 38.506505 -12.494426 0.527375 3.586862 -11.459052 -14.469591 -41.677455 11.215600 7.125000 0.000000 0.000000 38.347500 -72.871000 -26.378300 
10.556267 18.190379 20.813703 171.563668 7.833240 -144.511286 9.744299 1.606566 -2.503623 -0.999213 -15.133188 -28.894215 -0.288850 11.797309 28.153188 -0.860480 33.695853 -11.424163 1.242600 7.068100 19.917300 -13.282069 -2.209224 -2.053558 1.333870 11.227444 -74.162628 -10.449435 -24.752715 66.605459 -2.842809 2.531085 -32.160996 -1.334700 7.315300 -20.653000 -0.145485 -3.037506 5.742378 1.316174 -3.314880 -2.687920 -0.607291 -1.863518 7.224252 -9.476457 -4.294654 -1.966582 7.281909 -6.893972 16.963778 0.487600 -2.655100 3.381600 19.006728 -2.435706 0.500471 -92.517383 -12.739419 33.965239 38.830978 -42.850997 -20.101313 -1.702092 -0.378273 -10.403604 25.353979 -13.173044 -6.530300 -7.125000 0.000000 0.000000 -0.150600 15.519400 0.104800 -12.196443 1.962870 0.199468 62.732640 16.275085 25.692710 -27.216528 38.398423 -12.339582 0.501511 3.658848 -11.819106 -14.567983 -42.193579 11.405700 7.125000 0.000000 0.000000 39.648200 -73.317300 -27.704500 
10.627903 18.273424 20.779915 171.685699 8.013147 -144.606890 9.702137 1.601972 -2.559627 -1.750118 -14.363660 -29.896463 0.178485 12.755319 30.779235 -1.116176 34.299333 -13.176347 1.158000 6.831800 19.218000 -13.320402 -2.194524 -1.989866 1.906487 11.589225 -73.410271 -10.047368 -24.562665 65.498207 -2.784206 2.872878 -31.807355 -1.243100 7.069500 -19.921500 -0.462097 -3.246587 5.354029 1.513309 -3.645111 -2.783248 0.136379 -2.075009 7.101655 -10.324568 -3.705122 -1.079511 7.152878 -6.192763 16.947632 0.649200 -2.330000 3.153800 18.966650 -2.472543 0.473860 -93.668478 -11.258120 32.980067 38.636118 -42.734017 -19.962183 -1.676586 -0.359465 -9.814872 24.981237 -13.195613 -6.430200 -7.125000 0.000000 0.000000 -0.428400 15.542500 0.297900 -12.135053 1.917769 0.270133 62.330199 16.568622 27.475301 -26.965074 38.184391 -12.122838 0.472042 3.686266 -11.928055 -14.311198 -42.383136 11.245500 7.125000 0.000000 0.000000 40.499200 -73.372600 -28.393000 
10.704475 18.358992 20.756438 171.851504 8.104209 -144.616515 9.788721 1.584989 -2.680212 -2.473415 -13.751143 -30.976166 0.730390 13.721580 33.560302 -1.071987 34.329975 -13.117716 0.866600 5.935700 16.597800 -13.296035 -2.170629 -1.984910 2.498751 12.023537 -72.662338 -9.669618 -24.397234 64.463307 -2.743787 3.130308 -31.586313 -1.182500 6.901200 -19.423100 -0.017995 -2.553618 5.243258 1.161189 -2.682954 -2.600498 -1.111907 -1.527077 7.636533 -8.494637 -4.341936 -1.812269 7.249492 -7.034611 17.011294 0.258200 -2.682400 3.276600 18.980615 -2.415960 0.529681 -92.435458 -12.235002 34.741829 38.062739 -42.394761 -19.514499 -1.674173 -0.352757 -10.190120 24.735046 -13.262580 -6.403100 -7.125000 0.000000 0.000000 -0.606300 15.476300 0.422600 -12.162269 1.889617 0.178448 63.809990 15.950052 25.931371 -26.645913 37.975653 -11.947207 0.481637 3.648320 -11.360465 -13.883851 -42.235423 10.875000 7.125000 0.000000 0.000000 40.556700 -73.092900 -28.208200 
